<?xml version="1.0" encoding="UTF-8"?>
<svg version="1.1" xmlns="http://www.w3.org/2000/svg" width="3371" height="1294">
<path d="M0 0 C1.14694336 0.20399414 2.29388672 0.40798828 3.47558594 0.61816406 C31.60772815 5.75689889 58.29845661 13.94563975 84.4375 25.5 C85.19321289 25.83112793 85.94892578 26.16225586 86.72753906 26.50341797 C94.17067351 29.87573782 100.80295471 33.88740269 108 38 C108.33 24.47 108.66 10.94 109 -3 C162.13 -3 215.26 -3 270 -3 C282.78469723 87.13211544 282.78469723 87.13211544 280.62109375 111.52734375 C280.54505944 112.43746176 280.46902513 113.34757978 280.39068675 114.28527713 C275.21519181 172.21094611 230.46594741 210.59771559 190.0625 248.0625 C189.10766975 248.9499931 188.15283951 249.83748619 187.16907501 250.75187302 C164.08985509 272.17933978 140.49100034 292.97139042 116.19447327 313.00917053 C115.57483123 313.5218788 114.9551892 314.03458706 114.31677014 314.56283194 C110.1198437 318 110.1198437 318 109 318 C108.93530518 317.22624023 108.87061035 316.45248047 108.80395508 315.65527344 C107.43068527 299.74184644 105.8034931 284.30616305 101 269 C100.79036621 268.32291992 100.58073242 267.64583984 100.36474609 266.94824219 C92.62029018 242.68347271 78.5163223 222.18894908 61 204 C60.41089844 203.35933594 59.82179688 202.71867188 59.21484375 202.05859375 C35.77953616 177.24135156 -3.39218607 160.09375997 -37.42285156 158.87768555 C-41.5743946 158.79262979 -45.72271151 158.75340366 -49.875 158.75 C-50.98248093 158.74898788 -50.98248093 158.74898788 -52.11233521 158.74795532 C-63.33965536 158.76425484 -74.06753742 159.30568042 -85 162 C-85.70479492 162.16097168 -86.40958984 162.32194336 -87.13574219 162.48779297 C-116.03934605 169.16525671 -140.55943098 183.82502012 -162 204 C-162.639375 204.57492187 -163.27875 205.14984375 -163.9375 205.7421875 C-175.68328755 216.75386332 -184.84634418 230.66546227 -192 245 C-192.34901367 245.69673828 -192.69802734 246.39347656 -193.05761719 247.11132812 C-211.78768096 285.192914 -213.99467578 328.38980761 -200.83691406 368.58544922 C-198.64074249 374.92154515 -195.95813897 380.98693861 -193 387 C-192.54004639 387.94649414 -192.54004639 387.94649414 -192.07080078 388.91210938 C-184.8022471 403.69790753 -175.41036997 416.17680912 -164 428 C-163.22269531 428.84046875 -162.44539062 429.6809375 -161.64453125 430.546875 C-134.71750152 458.87212571 -94.6328105 474.36258287 -56 476 C-55.16082031 476.04125 -54.32164062 476.0825 -53.45703125 476.125 C-12.70349636 477.1359404 27.80863137 461.146522 57.5794879 433.53507945 C61.73283675 429.55858367 65.78021285 425.47522641 69.83500671 421.39877319 C71.20367925 420.03025698 72.57279432 418.66218325 73.94230968 417.29451048 C77.68042817 413.5589093 81.41231809 409.81714072 85.14317906 406.07429314 C89.17701088 402.02972471 93.21667866 397.99099245 97.25564575 393.95155334 C104.24642676 386.95841497 111.23359803 379.96168686 118.21835899 372.96253586 C128.32524274 362.83492916 138.43816046 352.71336494 148.55263434 342.59333916 C164.97508586 326.16164045 181.3934436 309.72585813 197.80883789 293.28710938 C198.80032718 292.29421251 199.79181657 291.30131574 200.78330604 290.30841906 C201.27456017 289.81646733 201.76581431 289.32451559 202.27195493 288.81765623 C204.75730977 286.32877258 207.24266688 283.83989121 209.72802734 281.35101318 C210.22085536 280.85748671 210.71368337 280.36396024 211.22144557 279.85547842 C222.67404438 268.38669178 234.12793049 256.91919117 245.58227539 245.45214844 C246.0730966 244.96078111 246.56391782 244.46941378 247.0696124 243.96315653 C258.27949967 232.74081891 269.48998581 221.51907997 280.70164967 210.29851723 C281.40876606 209.59083774 281.40876606 209.59083774 282.13016763 208.86886171 C287.30160775 203.69331621 292.47314227 198.51786506 297.64475757 193.34249461 C307.73350654 183.24615774 317.82017301 173.14774835 327.9041476 163.04664291 C334.8108026 156.12841876 341.71915216 149.21188997 348.62883504 142.29668997 C352.61490811 138.3072864 356.60012764 134.31703938 360.5831356 130.32457542 C364.23061795 126.66844914 367.88040916 123.01464421 371.5320271 119.36264856 C372.85102158 118.04269006 374.16916349 116.72187892 375.48635408 115.4001203 C381.81656264 109.04880572 388.13009593 102.77502383 395 97 C395.98742187 96.13117188 396.97484375 95.26234375 397.9921875 94.3671875 C412.86105919 81.51306807 428.89964867 70.66342878 446 61 C446.83370117 60.52820313 447.66740234 60.05640625 448.52636719 59.5703125 C515.87205958 21.90458729 596.79352653 14.45302609 670.7578125 34.81640625 C708.08510837 45.5808137 742.85719517 63.47164098 773 88 C773.50869629 88.4125 774.01739258 88.825 774.54150391 89.25 C781.37434654 94.81985992 787.92143536 100.68374964 794.375 106.6875 C795.02895752 107.29295654 795.68291504 107.89841309 796.35668945 108.5222168 C800.87907182 112.77386681 804.96932925 117.28434336 809 122 C809.94850848 123.07209625 810.8989147 124.1425177 811.8515625 125.2109375 C845.59782227 163.49440837 868.6974464 211.84667566 878 262 C878.22526367 263.19085205 878.22526367 263.19085205 878.45507812 264.40576172 C886.89848269 310.38066753 884.05597235 359.43487696 870 404 C869.56929199 405.37647705 869.56929199 405.37647705 869.12988281 406.78076172 C856.82244656 445.4793329 836.4242366 482.7490592 808.453125 512.3984375 C806.38171835 514.59518404 804.39569738 516.82823579 802.4375 519.125 C795.83493631 526.69991273 788.67601967 533.4760679 780.8203125 539.734375 C778.95496457 541.23285394 777.11541178 542.7640791 775.3046875 544.328125 C732.60476903 581.19992089 676.61125317 602.7425141 621 609 C619.83803101 609.14139404 619.83803101 609.14139404 618.65258789 609.28564453 C609.27637142 610.29973082 599.85742598 610.2437101 590.4375 610.25 C589.52782471 610.25067474 588.61814941 610.25134949 587.6809082 610.25204468 C572.58975316 610.23432195 557.91162729 609.50209964 543 607 C541.48043701 606.75056641 541.48043701 606.75056641 539.93017578 606.49609375 C508.71425395 601.20940791 478.88412116 590.98735468 451 576 C450.33033203 575.6405127 449.66066406 575.28102539 448.97070312 574.91064453 C418.47028424 558.40748361 389.38698328 535.62122544 367 509 C366.5555957 508.48002441 366.11119141 507.96004883 365.65332031 507.42431641 C353.22995193 492.83805996 342.76820251 477.07668833 333.1875 460.5 C332.67759521 459.62190674 332.16769043 458.74381348 331.64233398 457.83911133 C331.17641846 457.01564209 330.71050293 456.19217285 330.23046875 455.34375 C329.82207764 454.62380859 329.41368652 453.90386719 328.99291992 453.16210938 C327.8115696 450.58968783 327.14674132 448.85168965 327 446 C328.52590403 443.87853705 329.91997589 442.29420646 331.77708435 440.50138855 C332.30300818 439.97033817 332.82893201 439.43928779 333.37079293 438.89214498 C335.14265321 437.11037522 336.93516012 435.35093912 338.72827148 433.59057617 C340.000332 432.32020749 341.27107397 431.04851733 342.54058838 429.77560425 C345.99623618 426.3182309 349.47010703 422.87970187 352.94745898 419.44417739 C356.57632386 415.85275274 360.18826872 412.24439474 363.80201721 408.63777161 C370.65017701 401.80828028 377.51349146 394.99423043 384.38233572 388.18555003 C392.2004792 380.43440904 400.00164618 372.66627804 407.8014096 364.89664876 C423.8487426 348.91207619 439.91735514 332.94903798 456 317 C458.25997701 321.08886014 458.47044711 324.97899126 458.8125 329.5625 C461.31644553 356.97911883 472.52983444 381.91629857 490 403 C490.66773438 403.82113281 491.33546875 404.64226562 492.0234375 405.48828125 C512.09933014 429.21061153 544.13381373 444.33870632 574.76708984 447.82128906 C612.45736387 450.83782969 647.10673031 440.44036648 676 416 C676.68449219 415.44957031 677.36898438 414.89914062 678.07421875 414.33203125 C683.86559536 409.54191425 688.41273239 403.92791273 693 398 C693.6703125 397.15695312 694.340625 396.31390625 695.03125 395.4453125 C715.88385309 368.22108069 724.0734403 332.75728276 719.78515625 298.98046875 C714.87299093 265.51102811 697.27514158 233.56588808 670.1484375 212.9921875 C640.80075383 191.74707191 605.38380245 181.55747102 569.25 187.1875 C533.91923485 193.28591629 509.18046431 211.63245105 484.43710327 236.44937134 C483.08557996 237.80117511 481.73383423 239.15275655 480.38188708 240.50413644 C476.68936559 244.19636397 472.99995446 247.89168558 469.31105852 251.5875349 C465.3237879 255.58120431 461.33359069 259.57194781 457.34373474 263.56303406 C450.43696965 270.4726804 443.53198179 277.38409859 436.62815475 284.29668045 C426.63827544 294.29913465 416.64514 304.29833075 406.6511205 314.29664807 C390.42418473 330.53064493 374.19911231 346.76650228 357.97558594 363.00390625 C357.49064731 363.48925852 357.00570869 363.97461079 356.50607495 364.47467071 C349.12898917 371.85805306 341.75198572 379.24151767 334.375 386.625 C326.50460463 394.50232594 318.63417797 402.37962063 310.76367188 410.25683594 C310.27869536 410.74222704 309.79371885 411.22761815 309.29404607 411.72771807 C292.63778891 428.39818837 275.97956238 445.06668886 259.31978095 461.73363721 C249.35043045 471.70746748 239.38286236 481.68307273 229.41758765 491.66097532 C222.5918198 498.49516919 215.76428506 505.32759446 208.93535732 512.15863086 C204.99588894 516.09944397 201.0572564 520.04108331 197.120821 523.98492622 C193.51586015 527.59664519 189.9085897 531.20604068 186.29948898 534.81362264 C184.99594742 536.11743516 183.69325328 537.42209562 182.39150541 538.727699 C176.10446992 545.03248654 169.81159346 551.2549792 163 557 C161.92721865 557.94773354 160.85653592 558.89785437 159.7890625 559.8515625 C116.83227865 597.70617375 63.13769518 622.58788968 7 633 C6.1322998 633.16435547 5.26459961 633.32871094 4.37060547 633.49804688 C-16.27408145 637.30434721 -38.02828799 638.90124287 -59 638 C-60.00337402 637.95891113 -61.00674805 637.91782227 -62.04052734 637.87548828 C-122.17338295 635.15442658 -182.73963024 617.39216375 -232 582 C-232.68980957 581.50951172 -233.37961914 581.01902344 -234.09033203 580.51367188 C-245.24335985 572.56030243 -255.87419961 564.22578756 -266 555 C-266.67724121 554.38447266 -267.35448242 553.76894531 -268.05224609 553.13476562 C-276.11736514 545.77136592 -283.91473686 538.32714505 -291 530 C-291.82242188 529.06542969 -292.64484375 528.13085938 -293.4921875 527.16796875 C-343.71376196 469.66375833 -371.30091794 394.29532502 -371.1875 318.125 C-371.18656342 317.3088623 -371.18562683 316.49272461 -371.18466187 315.65185547 C-370.961701 225.69428542 -333.335175 146.0977929 -270.34228516 83.15698242 C-264.48240486 77.36267723 -258.58020195 71.97058332 -252 67 C-251.03835938 66.23300781 -250.07671875 65.46601563 -249.0859375 64.67578125 C-205.94169176 30.3819858 -155.00046802 9.6044665 -101 0 C-100.00000977 -0.18079102 -99.00001953 -0.36158203 -97.96972656 -0.54785156 C-66.73416946 -5.89735283 -31.16766533 -5.6348889 0 0 Z " fill="#0D99FF" transform="translate(614,216)"/>
<path d="M0 0 C53.13 0 106.26 0 161 0 C161 271.59 161 543.18 161 823 C107.87 823 54.74 823 0 823 C-0.33 813.1 -0.66 803.2 -1 793 C-4.465 794.7015625 -4.465 794.7015625 -8 796.4375 C-42.12815914 812.65622173 -80.90172348 823.03244031 -118.8515625 823.203125 C-119.86809906 823.20882507 -120.88463562 823.21452515 -121.93197632 823.22039795 C-124.07833842 823.22979337 -126.22471458 823.23636004 -128.37109375 823.24023438 C-131.56798457 823.24982889 -134.76420003 823.28085892 -137.9609375 823.3125 C-205.85465321 823.66191394 -275.73563752 797.15933647 -325.75390625 751.0625 C-327.71593864 749.26084243 -329.71654749 747.53212157 -331.75 745.8125 C-340.80307795 737.89794301 -349.3567741 729.26865213 -356.77880859 719.80541992 C-358.89840521 717.12831674 -361.07500813 714.50969059 -363.265625 711.890625 C-367.84909459 706.29340862 -371.95434096 700.47236452 -375.9375 694.4375 C-376.6291626 693.39247314 -377.3208252 692.34744629 -378.03344727 691.27075195 C-399.23295076 658.91101025 -413.37971782 623.5226803 -420.8125 585.5625 C-421.00739014 584.57032471 -421.20228027 583.57814941 -421.40307617 582.5559082 C-424.40178404 566.37292984 -425.35009949 550.45790782 -425.31567383 534.02539062 C-425.31252456 530.89938053 -425.33604011 527.77433094 -425.36132812 524.6484375 C-425.41925766 506.24850023 -423.69825628 487.99634639 -419.75 470 C-419.53947998 469.02474365 -419.32895996 468.0494873 -419.11206055 467.04467773 C-409.59417537 424.27755567 -391.22213731 384.3806609 -364 350 C-363.22011719 349.00742187 -362.44023437 348.01484375 -361.63671875 346.9921875 C-348.52180475 330.63931072 -333.64601754 314.77742117 -317 302 C-315.73754054 300.99832869 -314.47588173 299.99564778 -313.21484375 298.9921875 C-296.0270524 285.43601995 -277.60651959 274.68143566 -258 265 C-256.86691406 264.43587402 -256.86691406 264.43587402 -255.7109375 263.86035156 C-234.55596978 253.4682664 -211.1183456 246.3475881 -188 242 C-186.83380127 241.77473633 -186.83380127 241.77473633 -185.64404297 241.54492188 C-135.43285008 232.05384663 -83.10417361 236.91035699 -34.875 253.25 C-33.91223145 253.57186279 -32.94946289 253.89372559 -31.95751953 254.2253418 C-20.90907975 258.10130112 -10.77723143 263.10125844 0 268 C0 179.56 0 91.12 0 0 Z M-224 435 C-224.75796875 435.68707031 -225.5159375 436.37414062 -226.296875 437.08203125 C-247.63169363 457.35010895 -262.61054371 488.91463517 -264.17700195 518.32299805 C-264.88551357 558.08150849 -255.34049396 592.83334118 -227.59375 622.38061523 C-205.17216479 645.57400946 -173.24150006 661.31290269 -140.75 662.3359375 C-138.16680933 662.3660477 -135.58336374 662.3785235 -133 662.375 C-132.32257751 662.37445618 -131.64515503 662.37391235 -130.94720459 662.37335205 C-119.26838594 662.33044424 -108.2507611 661.25832098 -97 658 C-96.28279785 657.79632812 -95.5655957 657.59265625 -94.82666016 657.3828125 C-77.54577593 652.29858413 -61.68897285 643.66375495 -48 632 C-47.12085937 631.26007813 -46.24171875 630.52015625 -45.3359375 629.7578125 C-18.63134849 606.52564683 -2.63061629 573.83430438 -0.125 538.546875 C-0.08375 537.70640625 -0.0425 536.8659375 0 536 C0.061875 534.77023437 0.061875 534.77023437 0.125 533.515625 C1.00270011 497.31049532 -13.66772015 463.39969354 -38.28295898 437.31445312 C-61.00597049 414.05068765 -93.39652974 399.13618154 -126 398 C-126.97453125 397.96003906 -127.9490625 397.92007812 -128.953125 397.87890625 C-164.87517825 397.12684356 -197.81409823 410.8494089 -224 435 Z " fill="#0D99FF" transform="translate(3210,1)"/>
<path d="M0 0 C53.13 0 106.26 0 161 0 C161.02578125 22.00171875 161.0515625 44.0034375 161.078125 66.671875 C161.10329376 80.61719578 161.12944025 94.56250446 161.16015625 108.5078125 C161.17624653 115.83626239 161.19208974 123.16471275 161.20751953 130.49316406 C161.20946347 131.41156106 161.21140741 132.32995806 161.21341026 133.27618527 C161.24436093 148.06845651 161.26138588 162.86071225 161.27319422 177.65300974 C161.28564158 192.85407705 161.31322343 208.05506362 161.35461307 223.25607991 C161.37964626 232.62244213 161.39312476 241.98867031 161.39142957 251.35506645 C161.39139963 257.7935299 161.40617975 264.23185766 161.43216428 270.67026815 C161.44669253 274.37501827 161.45511609 278.07949021 161.44580269 281.78426361 C161.35435866 322.88881147 171.9431168 357.62213462 201.1875 387.5625 C207.54631242 393.91289758 214.46424769 399.13067674 222 404 C223.49660156 404.97066406 223.49660156 404.97066406 225.0234375 405.9609375 C252.32374635 422.72171693 287.79964462 428.90808263 319.12890625 421.97265625 C354.26351791 413.14468622 384.73194829 394.4573958 404 363 C418.08978464 339.21401947 424.13442886 314.89943307 424.15821838 287.28804016 C424.16562535 285.43634359 424.16562535 285.43634359 424.17318195 283.54723901 C424.18580484 280.15161099 424.19414433 276.75602316 424.20060861 273.36038125 C424.20866869 269.68704531 424.22234683 266.0137296 424.23532104 262.34040833 C424.25700486 255.98634289 424.27517863 249.63227533 424.29092598 243.27819252 C424.31369877 234.09140766 424.34183105 224.90464527 424.37124526 215.71787956 C424.41883071 200.81070895 424.46211921 185.90352912 424.50268555 170.99633789 C424.54208664 156.52074466 424.58353488 142.04515964 424.62768555 127.56958008 C424.63180981 126.21612567 424.63180981 126.21612567 424.63601738 124.83532876 C424.65753823 117.77807319 424.6791773 110.72081799 424.70085371 103.66356289 C424.80695785 69.10905855 424.90275654 34.55453261 425 0 C478.13 0 531.26 0 586 0 C586 193.38 586 386.76 586 586 C532.87 586 479.74 586 425 586 C424.67 576.1 424.34 566.2 424 556 C421.215625 557.299375 418.43125 558.59875 415.5625 559.9375 C346.42720378 591.28935208 266.68986707 595.17822335 195 570 C193.65637107 569.54781719 192.31262923 569.09596964 190.96875 568.64453125 C155.95923052 556.52602399 122.87074768 536.02842578 95.9140625 510.703125 C93.67829534 508.62919622 91.4173245 506.63030953 89.10546875 504.64453125 C85.06038458 501.11846426 81.3426361 497.36295476 77.6875 493.4375 C77.03797363 492.74060059 76.38844727 492.04370117 75.71923828 491.32568359 C70.27660615 485.41887825 65.20462603 479.31127616 60.40087891 472.87646484 C59.42754417 471.57269162 58.44755315 470.27387186 57.46240234 468.97900391 C44.96443257 452.52391335 34.72549053 434.71800589 26 416 C25.64873047 415.25443848 25.29746094 414.50887695 24.93554688 413.74072266 C6.32565966 373.78854415 -0.35606734 331.83779502 -0.23213124 288.11069107 C-0.22339159 284.2336711 -0.22642424 280.35665658 -0.22793579 276.47962952 C-0.22897808 269.78298707 -0.22277069 263.08638398 -0.21146011 256.38975143 C-0.19511823 246.70787574 -0.18998828 237.02601882 -0.18748413 227.34413083 C-0.18312057 211.63110251 -0.16984802 195.91809511 -0.15087891 180.20507812 C-0.13248529 164.95280052 -0.11836885 149.70052864 -0.10986328 134.44824219 C-0.10932729 133.49651768 -0.10879129 132.54479318 -0.10823905 131.56422853 C-0.10407954 124.11971897 -0.10016593 116.67520928 -0.09632993 109.23069954 C-0.07750568 72.82044716 -0.03725892 36.41024721 0 0 Z " fill="#0D99FF" transform="translate(1531,240)"/>
<path d="M0 0 C50.386875 -0.061875 100.77375 -0.12375 152.6875 -0.1875 C168.55545654 -0.21481201 184.42341309 -0.24212402 200.7722168 -0.27026367 C220.25549316 -0.28381348 220.25549316 -0.28381348 229.39704895 -0.28633118 C235.73664246 -0.2891088 242.07615504 -0.30002748 248.41572571 -0.31672668 C255.75319139 -0.33602538 263.09058051 -0.34446134 270.42807167 -0.34033485 C274.16955673 -0.33855233 277.91087145 -0.34107476 281.65232408 -0.35764539 C348.3320681 -0.63804405 413.26252409 16.23908261 467 57 C467.57943359 57.43666992 468.15886719 57.87333984 468.75585938 58.32324219 C476.30050094 64.03725916 483.44337888 70.0554993 490.34375 76.53125 C492.47549623 78.51252002 494.63790094 80.39207027 496.875 82.25 C507.3294384 91.35688085 516.36413732 102.19111221 524.67773438 113.24511719 C526.00699452 115.00928297 527.35447286 116.75844573 528.703125 118.5078125 C536.31353189 128.50072602 542.78826922 139.09288789 549 150 C549.44230957 150.77327637 549.88461914 151.54655273 550.34033203 152.34326172 C575.16902579 196.2333172 584.15103768 244.07801731 586 294 C532.87 294 479.74 294 425 294 C423.515 282.12 423.515 282.12 422 270 C413.93939991 234.92549689 396.111804 202.83595433 364.953125 183.18701172 C303.35766974 145.75237379 230.56052515 161.49343025 160 161 C160 301.25 160 441.5 160 586 C107.2 586 54.4 586 0 586 C0 392.62 0 199.24 0 0 Z " fill="#0D99FF" transform="translate(2161,240)"/>
<path d="M0 0 C0.06892733 34.0301546 0.12166049 68.06029159 0.15319599 102.09050069 C0.15694733 106.12389185 0.16083037 110.15728287 0.16479492 114.19067383 C0.16558185 114.99352343 0.16636878 115.79637303 0.16717956 116.62355141 C0.18017198 129.55966734 0.20379113 142.49574256 0.23145839 155.43183448 C0.25968542 168.74238804 0.27621245 182.05292054 0.28226548 195.3635028 C0.28634642 203.55214772 0.29915144 211.74067752 0.3237494 219.92928693 C0.33982119 225.57302807 0.34435297 231.21671122 0.34050413 236.86047348 C0.33861518 240.09850498 0.34287715 243.33630078 0.35761642 246.57430458 C0.45775435 269.74275652 -1.05195275 292.87840208 -5.6875 315.625 C-6.06986816 317.53563232 -6.06986816 317.53563232 -6.45996094 319.48486328 C-20.17914671 386.38338099 -58.13964205 453.99315199 -112.27734375 496.8359375 C-115.12066105 499.09590563 -117.86746036 501.4488946 -120.625 503.8125 C-165.27815628 540.94693717 -221.81901306 563.1333122 -279 571 C-279.84546387 571.11859375 -280.69092773 571.2371875 -281.56201172 571.359375 C-362.33956671 582.1105172 -447.69525189 558.87671185 -512.52807617 509.91845703 C-515.04519361 507.97818702 -517.52535583 505.99403146 -520 504 C-520.91523437 503.27683594 -521.83046875 502.55367187 -522.7734375 501.80859375 C-539.2712358 488.59617362 -554.97798085 473.65447712 -568 457 C-568.92694648 455.87144098 -569.8568134 454.74527649 -570.7890625 453.62109375 C-582.7563855 439.10540961 -592.77796149 423.37421605 -602 407 C-602.37721191 406.33742188 -602.75442383 405.67484375 -603.14306641 404.9921875 C-624.43538246 367.33607589 -636.06229572 324.49144548 -640.25 281.625 C-640.33024414 280.8314209 -640.41048828 280.0378418 -640.49316406 279.22021484 C-641.28038705 270.104905 -641 261.23871746 -641 252 C-587.87 252 -534.74 252 -480 252 C-479.01 262.89 -479.01 262.89 -478 274 C-472.78505826 304.54465874 -461.70464728 332.55554178 -441 356 C-440.15824219 356.97453125 -439.31648437 357.9490625 -438.44921875 358.953125 C-413.08941315 387.84686432 -374.83590608 407.92339395 -336.2890625 410.87109375 C-289.91625992 413.48253144 -247.80191641 400.4755102 -212.81396484 369.54272461 C-189.73183078 348.53597306 -173.51048827 320.59337417 -166.1875 290.3125 C-165.99260986 289.5066748 -165.79771973 288.70084961 -165.59692383 287.87060547 C-162.84165411 275.71050367 -161.70392869 263.62537424 -161.68115234 251.17993164 C-161.67110672 249.89026993 -161.6610611 248.60060822 -161.65071106 247.27186584 C-161.6237952 243.78940621 -161.60837815 240.30698606 -161.59528303 236.82445073 C-161.57948108 233.16493991 -161.55274692 229.5055079 -161.5272522 225.84605408 C-161.48076257 218.94047006 -161.44387581 212.03487071 -161.41057932 205.12921184 C-161.37214507 197.25713873 -161.32279196 189.38514536 -161.27259517 181.51313984 C-161.1697197 165.3421508 -161.08031735 149.17111718 -161 133 C-160.38428635 132.66725067 -159.76857269 132.33450134 -159.13420105 131.9916687 C-156.2899248 130.45268369 -153.44769397 128.90995687 -150.60546875 127.3671875 C-149.63734253 126.84406982 -148.66921631 126.32095215 -147.67175293 125.78198242 C-124.16144702 113.00474933 -102.33254527 97.39157378 -82.58203125 79.3359375 C-80.5092354 77.4607001 -78.4117365 75.62995907 -76.29501343 73.80528259 C-72.26578765 70.28133989 -68.46115443 66.58366347 -64.69775391 62.77954102 C-64.01704834 62.09576889 -63.33634277 61.41199677 -62.63500977 60.70750427 C-61.17276176 59.23815827 -59.71164664 57.76768412 -58.25157547 56.296175 C-55.94281373 53.9699015 -53.63042059 51.64729439 -51.31698608 49.32566833 C-44.74560154 42.72992036 -38.1800212 36.12841616 -31.61865234 29.52270508 C-27.59363505 25.47099222 -23.56383045 21.42409309 -19.53098679 17.38017082 C-17.99563544 15.83859639 -16.46218605 14.29512531 -14.93065262 12.74975777 C-12.80021084 10.60021987 -10.66379087 8.45680165 -8.52587891 6.31469727 C-7.89108612 5.67114288 -7.25629333 5.0275885 -6.6022644 4.36453247 C-2.22789891 0 -2.22789891 0 0 0 Z " fill="#0D99FF" transform="translate(884,721)"/>
<path d="M0 0 C3.09576337 3.09576337 5.89849372 6.00320187 8.6875 9.3125 C25.57237877 28.30014248 50.55305773 38.87118645 75.6875 40.3515625 C103.73472045 41.24929119 128.45927002 30.92237404 149.05859375 12.12109375 C152.00016838 9.29338653 154.49112216 6.42008707 156.8125 3.0625 C157.534375 2.051875 158.25625 1.04125 159 0 C159.66 0 160.32 0 161 0 C161 192.72 161 385.44 161 584 C107.87 584 54.74 584 0 584 C0 391.28 0 198.56 0 0 Z " fill="#0D99FF" transform="translate(19,240)"/>
<path d="M0 0 C24.77730619 -0.61671187 48.93171934 7.62595589 67.48046875 24.12109375 C68.22296875 24.72179687 68.96546875 25.3225 69.73046875 25.94140625 C87.56596526 40.7423912 98.47793595 63.37496891 101.48046875 86.12109375 C103.66039186 116.87581473 96.95602803 142.66443392 76.91796875 166.42578125 C58.51364288 186.77671851 33.13272871 197.87896194 5.91015625 199.30859375 C-22.0146111 199.80836587 -47.25283039 189.5721896 -67.5222168 170.56762695 C-84.95250824 153.66269424 -95.9425452 129.77381827 -96.72265625 105.40625 C-97.13175362 78.32037937 -89.84731896 53.59151852 -71.51953125 33.12109375 C-70.7203125 32.22777344 -69.92109375 31.33445312 -69.09765625 30.4140625 C-50.85350026 11.11735905 -26.32082481 1.26503189 0 0 Z " fill="#0D99FF" transform="translate(96.51953125,-0.12109375)"/>
</svg>
